# xmcd
#
# Track frame offsets: 
#        150
#        15147
#        30370
#        37919
#        51652
#        64665
#        82476
#        94257
#        105338
#        119664
#
# Disc length: 1847 seconds
#
# Revision: 0
# Processed by: cddbd v1.5.2PL0 Copyright (c) Steve Scherf et al.
# Submitted via: ExactAudioCopy v0.99pb5
#
DISCID=7b07350a
DTITLE=Steve Hill - Alone hungry and mean
DYEAR=2011
DGENRE=
TTITLE0=Love got us blind
TTITLE1=Honey bee
TTITLE2=Comin' back to you
TTITLE3=Politician
TTITLE4=Gotta be strong and carry on
TTITLE5=Ain't wastin' time no more
TTITLE6=Samson and Goliath
TTITLE7=I want you to love me
TTITLE8=Preachin' blues
TTITLE9=Out of phase
EXTD=
EXTT0=
EXTT1=
EXTT2=
EXTT3=
EXTT4=
EXTT5=
EXTT6=
EXTT7=
EXTT8=
EXTT9=
PLAYORDER=
